<svg width="59" height="20" viewBox="0 0 59 20" fill="none" xmlns="http://www.w3.org/2000/svg">
<path d="M49.0302 7.39351C49.0678 7.0391 49.1156 6.70855 49.1361 6.378C49.1703 5.87025 49.1088 5.37272 48.9891 4.87859C48.8524 4.32313 48.5926 3.83242 48.2028 3.41667C47.7242 2.90892 47.1328 2.60222 46.4353 2.49658C45.8302 2.40458 45.2388 2.44888 44.6576 2.62608C43.9157 2.85099 43.3004 3.27014 42.791 3.85286C41.9466 4.82407 41.4064 5.94522 41.1124 7.19245C41.0167 7.60138 40.9654 8.01372 40.938 8.43287C40.9175 8.75319 40.9107 9.06671 40.9414 9.38363C41.0132 10.1231 41.2696 10.7808 41.7448 11.3567C42.2953 12.0246 43.02 12.2904 43.861 12.3177C44.6337 12.3415 45.3072 12.0553 45.943 11.6566C46.4217 11.3601 46.8524 10.9989 47.2593 10.6172C47.9909 9.92887 48.6644 9.18257 49.331 8.43287C49.6353 8.08869 49.9464 7.75473 50.2541 7.41054C50.76 6.84827 51.2728 6.29621 51.7651 5.72371C52.3908 4.99787 53.1463 4.47648 54.0523 4.17319C54.3941 4.06074 54.7463 4.01644 55.1087 3.99599C55.5873 3.96532 56.0556 4.00962 56.5138 4.15275C57.4983 4.45944 58.1718 5.11373 58.5752 6.04404C58.8248 6.61995 58.9376 7.22993 58.965 7.85355C58.9752 8.09209 59.006 8.33404 58.9992 8.57258C58.9718 9.7244 58.7633 10.8387 58.2163 11.8713C57.7684 12.713 57.1975 13.4491 56.4249 14.0216C55.8061 14.4816 55.1223 14.7713 54.3531 14.8667C53.7719 14.9382 53.2044 14.911 52.6403 14.7644C52.0968 14.6213 51.6147 14.3589 51.2113 13.9636C51.1122 13.8682 51.0164 13.7694 50.8865 13.6433C50.5173 15.4051 50.1549 17.1294 49.7925 18.8571C48.8387 18.8571 47.9122 18.8571 46.9687 18.8571C47.0336 18.547 47.0952 18.2437 47.1567 17.9405C47.3379 17.0613 47.5225 16.1787 47.7037 15.2995C47.7345 15.1529 47.7892 15.0268 47.8951 14.9144C48.4934 14.2703 49.0814 13.616 49.6695 12.9652C50.237 12.3381 50.8045 11.7077 51.3925 11.0568C51.4198 11.1216 51.4438 11.1727 51.4643 11.2272C51.6386 11.6941 51.8814 12.1098 52.2882 12.4165C52.8796 12.8629 53.5189 12.9004 54.1856 12.6142C54.7702 12.3654 55.1736 11.919 55.4642 11.3669C55.8539 10.6309 56.0932 9.84708 56.2061 9.02581C56.2779 8.50784 56.2676 7.98986 56.1274 7.4787C56.0317 7.13111 55.6351 6.81078 55.2728 6.78352C54.842 6.74944 54.4625 6.89257 54.0967 7.10044C53.6489 7.35943 53.2523 7.68657 52.8762 8.03416C52.2267 8.64074 51.6592 9.32229 51.119 10.0243C50.5447 10.7706 49.9737 11.5169 49.3754 12.2427C48.9413 12.7709 48.4866 13.2821 47.9601 13.7285C47.6285 14.0079 47.2661 14.226 46.8593 14.376C46.1618 14.6315 45.4473 14.819 44.7055 14.8565C44.3089 14.8769 43.9123 14.9076 43.5157 14.8905C42.1722 14.8326 40.9551 14.4339 39.9192 13.5343C39.1022 12.8254 38.5894 11.9462 38.2953 10.9205C38.0902 10.2083 37.9842 9.47904 38.015 8.73616C38.0492 8.00008 38.1518 7.27083 38.333 6.5552C38.5278 5.77824 38.7808 5.01831 39.1398 4.30269C39.5876 3.41327 40.1517 2.60563 40.897 1.93772C41.8884 1.04489 43.0303 0.441717 44.3465 0.175914C44.7499 0.0941279 45.1602 0.0600505 45.5704 0.0225654C46.0183 -0.0217352 46.4593 0.00552668 46.9003 0.0498273C48.0661 0.16569 49.1225 0.55758 50.0318 1.31751C50.9276 2.06721 51.5019 3.01115 51.8164 4.12548C51.8438 4.22772 51.8301 4.29928 51.7583 4.37766C51.2968 4.882 50.8352 5.38976 50.3771 5.89751C49.9806 6.33711 49.5874 6.77671 49.1908 7.2129C49.1532 7.28105 49.0985 7.32876 49.0302 7.39351Z" fill="white"/>
<path fill-rule="evenodd" clip-rule="evenodd" d="M4.48962 0.00229179H4.20698C3.43041 3.73993 2.65584 7.45545 1.88176 11.1686C1.63324 12.3607 1.38478 13.5526 1.13632 14.7448C1.13401 14.7588 1.13475 14.7742 1.13552 14.7902C1.13592 14.7984 1.13632 14.8067 1.13632 14.815C1.13785 14.8196 1.13871 14.8236 1.13948 14.8272C1.14048 14.8317 1.14134 14.8357 1.1433 14.8396C1.14504 14.8414 1.14766 14.8431 1.15158 14.8457C1.15551 14.8484 1.16074 14.8519 1.16772 14.8571H4.14766C4.33023 14.0056 4.50853 13.1554 4.68674 12.3058C4.90364 11.2716 5.1204 10.2382 5.34452 9.20367H5.65856C6.09127 9.19946 6.52398 9.19412 6.95669 9.18879C7.60569 9.18079 8.25469 9.17278 8.90369 9.16857C9.51783 9.16506 10.125 9.09137 10.7252 8.96503C11.4161 8.81764 12.0686 8.58603 12.6478 8.16492C13.3352 7.66309 13.8307 7.01036 14.1866 6.24182C14.6647 5.20658 14.8566 4.12922 14.6926 2.99572C14.4797 1.5148 13.4992 0.486575 12.0441 0.177757C11.3672 0.0338755 10.6868 0.00931038 10.0029 0.00580108C8.69192 -0.00171837 7.37921 -0.000286651 6.06599 0.00114563C5.54059 0.00171866 5.0151 0.00229179 4.48962 0.00229179ZM6.13312 6.75418H5.82605C5.94012 6.20927 6.05274 5.67212 6.16445 5.13929C6.35347 4.23775 6.5399 3.3486 6.72632 2.45529C6.76032 2.45397 6.79285 2.45217 6.82428 2.45042C6.87671 2.44751 6.92607 2.44476 6.97406 2.44476C7.19389 2.44476 7.41373 2.44381 7.63356 2.44287C8.1465 2.44066 8.65944 2.43845 9.17238 2.44827C9.5911 2.45529 10.0133 2.48687 10.432 2.52899C11.3358 2.61672 11.8104 3.2905 11.7161 4.21345C11.5835 5.51189 10.617 6.39974 9.46549 6.57169C9.0014 6.64188 8.53382 6.6875 8.06624 6.71207C7.6357 6.73313 7.20671 6.73859 6.77721 6.74405C6.56273 6.74677 6.34812 6.7495 6.13312 6.75418Z" fill="white"/>
<path fill-rule="evenodd" clip-rule="evenodd" d="M16.4753 5.74242C16.2147 6.09762 16.0175 6.48327 15.8772 6.93657C16.6884 7.00958 17.4835 7.07711 18.272 7.14409C18.3604 7.1516 18.4488 7.1591 18.537 7.16661C18.5429 7.1531 18.5485 7.14019 18.5539 7.12778C18.5823 7.06249 18.6048 7.01088 18.6273 6.95687C18.8177 6.50018 19.1485 6.20926 19.6197 6.07394C19.9806 5.97246 20.3481 5.96569 20.709 6.01982C20.8995 6.05026 21.0967 6.1213 21.2637 6.21941C21.5578 6.39193 21.7215 6.66256 21.7282 7.01776C21.7349 7.29854 21.6747 7.56579 21.6079 7.83642C21.5812 7.9582 21.5143 8.01909 21.3974 8.04277C21.282 8.06389 21.1671 8.08821 21.0521 8.11254C20.8541 8.15444 20.6559 8.19638 20.4551 8.22206C19.9801 8.28103 19.5037 8.33088 19.0267 8.38077C18.7923 8.4053 18.5577 8.42984 18.3232 8.45548C17.7785 8.51637 17.2439 8.63477 16.7259 8.82421C15.7803 9.17265 15.1487 9.82554 14.8814 10.8133C14.731 11.358 14.7143 11.9094 14.8079 12.4642C14.9582 13.364 15.4294 14.044 16.2147 14.4905C16.913 14.8897 17.6649 14.9303 18.4334 14.7679C19.222 14.5988 19.9004 14.2165 20.4718 13.6414C20.4975 13.6154 20.5231 13.5901 20.5513 13.5624C20.5854 13.5288 20.6232 13.4916 20.6689 13.4452C20.6864 13.5542 20.7007 13.6607 20.7147 13.7647C20.7541 14.0577 20.7908 14.3315 20.8895 14.5886C21.2337 14.6326 23.3789 14.6191 23.5427 14.5683C23.5368 14.5448 23.5317 14.5218 23.5266 14.4993C23.5199 14.47 23.5135 14.4414 23.5059 14.4127C23.3121 13.682 23.282 12.9378 23.4224 12.1935C23.5056 11.7533 23.5951 11.314 23.6844 10.8753C23.7564 10.5218 23.8283 10.1686 23.8969 9.81539C23.9464 9.55801 24.0018 9.30191 24.0571 9.04589C24.2033 8.36981 24.3493 7.69431 24.3881 6.99746C24.4182 6.48327 24.3413 5.99614 24.084 5.5496C23.6763 4.83581 23.0481 4.41634 22.2762 4.19984C21.7449 4.05099 21.2002 4.00363 20.6489 4.00025C20.0775 3.99686 19.5094 4.02731 18.948 4.15586C17.9389 4.38928 17.1002 4.89671 16.4753 5.74242ZM20.907 9.83796C20.9948 9.82305 21.087 9.80738 21.1869 9.79171C21.1788 9.83872 21.1722 9.88123 21.1662 9.92053C21.1549 9.99437 21.1453 10.0569 21.1301 10.1165C21.1012 10.2239 21.0737 10.3318 21.0461 10.4397C20.9747 10.7194 20.9033 10.9991 20.8093 11.27C20.5152 12.1124 19.877 12.5487 19.0383 12.7213C18.781 12.7754 18.527 12.7855 18.2697 12.7213C17.8086 12.6063 17.4811 12.3289 17.3875 11.8553C17.294 11.385 17.3842 10.9487 17.8487 10.6171C18.1327 10.4142 18.4602 10.3093 18.791 10.218C19.3487 10.0654 19.9188 9.98451 20.4894 9.90352C20.5136 9.90008 20.5378 9.89664 20.562 9.8932C20.6742 9.87753 20.7864 9.85846 20.907 9.83796Z" fill="white"/>
<path d="M0.477431 17.7132L0 20.0001L25.4249 18.8549L26.6635 16.5715L0.477431 17.7132Z" fill="white"/>
<path d="M37.222 4.00345C36.3901 4.00345 35.5548 4.00689 34.7228 4C34.5605 4 34.4793 4.05514 34.4016 4.19644C33.7083 5.51983 33.0082 6.83978 32.3082 8.15972C31.6555 9.38317 31.0434 10.6239 30.5868 11.9404C30.5767 11.9714 30.5496 11.9989 30.5158 12.0506C30.4279 10.6824 30.2351 9.3556 30.0592 8.02532C29.8834 6.69159 29.7008 5.35441 29.5215 4.02068C28.5848 4.02068 27.6784 4.02068 26.7653 4.02068C26.7619 4.06548 26.7552 4.0965 26.7585 4.12407C26.9175 5.05802 27.0798 5.99543 27.2388 6.92938C27.3842 7.78752 27.533 8.64566 27.6784 9.50379C27.8407 10.455 28.0031 11.4062 28.1654 12.3574C28.2838 13.0535 28.5171 14.4458 28.5171 14.4458L26.0957 18.8571C27.8509 18.8571 28.9432 18.8571 28.9432 18.8571C28.9432 18.8571 32.9778 12.1333 33.989 10.2999C35.1151 8.25967 36.2413 6.21944 37.3675 4.17921C37.3945 4.13441 37.4114 4.08271 37.4419 4.01379C37.3573 4.01034 37.2897 4.00345 37.222 4.00345Z" fill="white"/>
</svg>
